<svg xmlns="http://www.w3.org/2000/svg" xmlns:xlink="http://www.w3.org/1999/xlink" width="403" height="702"><defs><path id="a" d="M19.766-15.016c-.86-4.78-3.61-7.109-8.391-7.109-2.922 0-5.281.922-6.89 2.719-1.97 2.14-3.048 5.25-3.048 8.781 0 3.578 1.094 6.656 3.125 8.781C6.267-.125 8.423.688 11.25.688c5.328 0 8.313-2.875 8.969-8.625h-2.875c-.235 1.484-.532 2.5-.985 3.375-.89 1.78-2.75 2.796-5.078 2.796-4.328 0-7.078-3.453-7.078-8.89 0-5.594 2.61-9.016 6.844-9.016 1.765 0 3.406.5 4.297 1.375.812.735 1.265 1.64 1.594 3.281Zm0 0"/><path id="b" d="M16.484-21.766v15.282c0 2.937-2.125 4.718-5.609 4.718-1.625 0-2.937-.39-3.984-1.125-1.063-.843-1.578-1.953-1.578-3.593v-15.282H2.53v15.282c0 4.422 3.172 7.172 8.344 7.172 5.094 0 8.39-2.813 8.39-7.172v-15.282Zm0 0"/><path id="c" d="M21.172-11.5h-9.078v2.453h6.625v.594c0 3.89-2.86 6.687-6.828 6.687-2.22 0-4.22-.796-5.5-2.203-1.438-1.562-2.297-4.156-2.297-6.844 0-5.343 3.047-8.859 7.64-8.859 3.313 0 5.704 1.703 6.297 4.5h2.844c-.781-4.422-4.125-6.953-9.11-6.953-2.656 0-4.812.688-6.515 2.094-2.531 2.078-3.937 5.453-3.937 9.375C1.313-3.97 5.406.688 11.28.688c2.969 0 5.297-1.11 7.438-3.47l.687 2.907h1.766Zm0 0"/><path id="d" d="M14.156-6.547 16.391 0H19.5l-7.64-21.766H8.265L.5 0h2.969l2.297-6.547Zm-.781-2.328H6.453l3.578-9.906Zm0 0"/></defs><path fill="none" stroke="#B2B2B2" stroke-linecap="round" stroke-linejoin="round" stroke-miterlimit="10" stroke-width="1.7059000000000002" d="M215.39 681.34a1.705 1.705 0 1 0-3.41-.003 1.705 1.705 0 0 0 3.41.003h-1.706V574.723a76.79 76.79 0 0 1-39.477-67.118 76.8 76.8 0 0 1 39.477-67.121V280.562a131.7 131.7 0 0 1-47.004-25.148 131.6 131.6 0 0 1-33.176-41.726 131.55 131.55 0 0 1-14.152-59.375c0-15.293 2.664-30.465 7.87-44.844a131.7 131.7 0 0 1 27.93-45.406 131.7 131.7 0 0 1 43.645-30.61A131.7 131.7 0 0 1 251 22.66a131.7 131.7 0 0 1 52.203 10.793 131.7 131.7 0 0 1 43.645 30.61 131.7 131.7 0 0 1 27.93 45.406 131.7 131.7 0 0 1 7.632 52.761 131.55 131.55 0 0 1-13.914 51.458 131.6 131.6 0 0 1-33.176 41.726 131.7 131.7 0 0 1-47.004 25.149v159.921a76.8 76.8 0 0 1 34.704 93.774 76.8 76.8 0 0 1-34.704 40.465V681.34"/><path fill="none" stroke="#333" stroke-dasharray="19.1909 6.418300000000001" stroke-dashoffset="19.1909" stroke-linecap="round" stroke-linejoin="round" stroke-miterlimit="10" stroke-width="1.4926000000000001" d="M288.316 681.34h-74.632m74.632-53.309h-74.632m74.632-53.308h-74.632m74.632-134.239h-74.632m74.632-53.308h-74.632m74.632-53.309h-74.632m74.632-53.305h-74.632"/><use xlink:href="#a" x="202.907" y="691.289"/><use xlink:href="#b" x="202.907" y="637.981"/><use xlink:href="#c" x="202.071" y="584.673"/><use xlink:href="#c" x="167.367" y="544.209"/><use xlink:href="#b" x="168.203" y="490.901"/><use xlink:href="#a" x="202.907" y="450.436"/><use xlink:href="#a" x="202.907" y="397.128"/><use xlink:href="#b" x="202.907" y="343.82"/><use xlink:href="#b" x="202.907" y="290.512"/><use xlink:href="#a" x="155.903" y="265.364"/><use xlink:href="#a" x="122.725" y="223.64"/><use xlink:href="#a" x="108.812" y="172.179"/><use xlink:href="#b" x="116.445" y="119.421"/><use xlink:href="#b" x="144.374" y="74.014"/><use xlink:href="#a" x="188.019" y="43.405"/><use xlink:href="#a" x="240.223" y="32.612"/><use xlink:href="#a" x="292.427" y="43.405"/><use xlink:href="#b" x="336.071" y="74.014"/><use xlink:href="#b" x="364" y="119.421"/><use xlink:href="#a" x="371.634" y="172.179"/><use xlink:href="#a" x="357.721" y="223.64"/><use xlink:href="#a" x="324.542" y="265.364"/><use xlink:href="#c" x="276.703" y="290.512"/><use xlink:href="#d" x="278.36" y="343.82"/><use xlink:href="#c" x="276.703" y="397.128"/><use xlink:href="#c" x="276.703" y="450.436"/><use xlink:href="#a" x="312.243" y="490.901"/><use xlink:href="#d" x="313.064" y="544.209"/><use xlink:href="#a" x="277.538" y="584.673"/><use xlink:href="#d" x="278.36" y="637.981"/><use xlink:href="#c" x="276.703" y="691.289"/><path fill="none" stroke="#00F" stroke-linecap="round" stroke-linejoin="round" stroke-miterlimit="10" stroke-width="1.4926000000000001" d="M228.61 681.34c0-8.246-6.68-14.93-14.926-14.93-8.243 0-14.926 6.684-14.926 14.93 0 8.242 6.683 14.926 14.926 14.926 8.246 0 14.925-6.684 14.925-14.926"/><path fill="#00F" d="M228.61 681.34c0-8.246-6.68-14.93-14.926-14.93-8.243 0-14.926 6.684-14.926 14.93 0 8.242 6.683 14.926 14.926 14.926 8.246 0 14.925-6.684 14.925-14.926"/><path fill="none" stroke="#00F" stroke-linecap="round" stroke-linejoin="round" stroke-miterlimit="10" stroke-width="1.4926000000000001" d="M228.61 628.031c0-8.246-6.68-14.926-14.926-14.926-8.243 0-14.926 6.68-14.926 14.926 0 8.242 6.683 14.926 14.926 14.926 8.246 0 14.925-6.684 14.925-14.926"/><path fill="#00F" d="M228.61 628.031c0-8.246-6.68-14.926-14.926-14.926-8.243 0-14.926 6.68-14.926 14.926 0 8.242 6.683 14.926 14.926 14.926 8.246 0 14.925-6.684 14.925-14.926"/><path fill="none" stroke="#00F" stroke-linecap="round" stroke-linejoin="round" stroke-miterlimit="10" stroke-width="1.4926000000000001" d="M228.61 574.723c0-8.243-6.68-14.926-14.926-14.926-8.243 0-14.926 6.683-14.926 14.926s6.683 14.925 14.926 14.925c8.246 0 14.925-6.683 14.925-14.925"/><path fill="#00F" d="M228.61 574.723c0-8.243-6.68-14.926-14.926-14.926-8.243 0-14.926 6.683-14.926 14.926s6.683 14.925 14.926 14.925c8.246 0 14.925-6.683 14.925-14.925"/><path fill="none" stroke="#00F" stroke-linecap="round" stroke-linejoin="round" stroke-miterlimit="10" stroke-width="1.4926000000000001" d="M193.906 534.258c0-8.242-6.683-14.926-14.926-14.926s-14.925 6.684-14.925 14.926 6.683 14.926 14.925 14.926 14.926-6.684 14.926-14.926"/><path fill="#00F" d="M193.906 534.258c0-8.242-6.683-14.926-14.926-14.926s-14.925 6.684-14.925 14.926 6.683 14.926 14.925 14.926 14.926-6.684 14.926-14.926"/><path fill="none" stroke="#00F" stroke-linecap="round" stroke-linejoin="round" stroke-miterlimit="10" stroke-width="1.4926000000000001" d="M193.906 480.95c0-8.243-6.683-14.927-14.926-14.927s-14.925 6.684-14.925 14.926 6.683 14.926 14.925 14.926 14.926-6.684 14.926-14.926"/><path fill="#00F" d="M193.906 480.95c0-8.243-6.683-14.927-14.926-14.927s-14.925 6.684-14.925 14.926 6.683 14.926 14.925 14.926 14.926-6.684 14.926-14.926"/><path fill="none" stroke="#00F" stroke-linecap="round" stroke-linejoin="round" stroke-miterlimit="10" stroke-width="1.4926000000000001" d="M228.61 387.176c0-8.242-6.68-14.926-14.926-14.926-8.243 0-14.926 6.684-14.926 14.926 0 8.246 6.683 14.93 14.926 14.93 8.246 0 14.925-6.684 14.925-14.93"/><path fill="#00F" d="M228.61 387.176c0-8.242-6.68-14.926-14.926-14.926-8.243 0-14.926 6.684-14.926 14.926 0 8.246 6.683 14.93 14.926 14.93 8.246 0 14.925-6.684 14.925-14.93"/><path fill="none" stroke="#00F" stroke-linecap="round" stroke-linejoin="round" stroke-miterlimit="10" stroke-width="1.4926000000000001" d="M181.605 255.414c0-8.242-6.68-14.926-14.925-14.926-8.243 0-14.926 6.684-14.926 14.926s6.684 14.926 14.926 14.926c8.246 0 14.925-6.684 14.925-14.926"/><path fill="#00F" d="M181.605 255.414c0-8.242-6.68-14.926-14.925-14.926-8.243 0-14.926 6.684-14.926 14.926s6.684 14.926 14.926 14.926c8.246 0 14.925-6.684 14.925-14.926"/><path fill="none" stroke="#00F" stroke-linecap="round" stroke-linejoin="round" stroke-miterlimit="10" stroke-width="1.4926000000000001" d="M142.148 109.469c0-8.242-6.683-14.926-14.925-14.926s-14.926 6.684-14.926 14.926c0 8.246 6.683 14.926 14.926 14.926s14.925-6.68 14.925-14.926"/><path fill="#00F" d="M142.148 109.469c0-8.242-6.683-14.926-14.925-14.926s-14.926 6.684-14.926 14.926c0 8.246 6.683 14.926 14.926 14.926s14.925-6.68 14.925-14.926"/><path fill="none" stroke="#00F" stroke-linecap="round" stroke-linejoin="round" stroke-miterlimit="10" stroke-width="1.4926000000000001" d="M318.129 33.453c0-8.242-6.684-14.926-14.926-14.926s-14.926 6.684-14.926 14.926c0 8.246 6.684 14.93 14.926 14.93s14.926-6.684 14.926-14.93"/><path fill="#00F" d="M318.129 33.453c0-8.242-6.684-14.926-14.926-14.926s-14.926 6.684-14.926 14.926c0 8.246 6.684 14.93 14.926 14.93s14.926-6.684 14.926-14.93"/><path fill="none" stroke="#00F" stroke-linecap="round" stroke-linejoin="round" stroke-miterlimit="10" stroke-width="1.4926000000000001" d="M397.34 162.23c0-8.246-6.688-14.93-14.93-14.93s-14.926 6.684-14.926 14.93c0 8.243 6.684 14.926 14.926 14.926s14.93-6.683 14.93-14.926"/><path fill="#00F" d="M397.34 162.23c0-8.246-6.688-14.93-14.93-14.93s-14.926 6.684-14.926 14.93c0 8.243 6.684 14.926 14.926 14.926s14.93-6.683 14.93-14.926"/><path fill="none" stroke="#00F" stroke-linecap="round" stroke-linejoin="round" stroke-miterlimit="10" stroke-width="1.4926000000000001" d="M383.426 213.688c0-8.243-6.684-14.926-14.93-14.926-8.242 0-14.926 6.683-14.926 14.926 0 8.246 6.684 14.925 14.926 14.925 8.246 0 14.93-6.68 14.93-14.925"/><path fill="#00F" d="M383.426 213.688c0-8.243-6.684-14.926-14.93-14.926-8.242 0-14.926 6.683-14.926 14.926 0 8.246 6.684 14.925 14.926 14.925 8.246 0 14.93-6.68 14.93-14.925"/><path fill="none" stroke="#00F" stroke-linecap="round" stroke-linejoin="round" stroke-miterlimit="10" stroke-width="1.4926000000000001" d="M350.246 255.414c0-8.242-6.683-14.926-14.926-14.926-8.246 0-14.925 6.684-14.925 14.926s6.68 14.926 14.925 14.926c8.243 0 14.926-6.684 14.926-14.926"/><path fill="#00F" d="M350.246 255.414c0-8.242-6.683-14.926-14.926-14.926-8.246 0-14.925 6.684-14.925 14.926s6.68 14.926 14.925 14.926c8.243 0 14.926-6.684 14.926-14.926"/><path fill="none" stroke="#00F" stroke-linecap="round" stroke-linejoin="round" stroke-miterlimit="10" stroke-width="1.4926000000000001" d="M303.242 280.563c0-8.247-6.683-14.926-14.926-14.926-8.246 0-14.925 6.68-14.925 14.926 0 8.242 6.68 14.925 14.925 14.925 8.243 0 14.926-6.683 14.926-14.925"/><path fill="#00F" d="M303.242 280.563c0-8.247-6.683-14.926-14.926-14.926-8.246 0-14.925 6.68-14.925 14.926 0 8.242 6.68 14.925 14.925 14.925 8.243 0 14.926-6.683 14.926-14.925"/><path fill="none" stroke="#00F" stroke-linecap="round" stroke-linejoin="round" stroke-miterlimit="10" stroke-width="1.4926000000000001" d="M303.242 333.867c0-8.242-6.683-14.926-14.926-14.926-8.246 0-14.925 6.684-14.925 14.926 0 8.246 6.68 14.93 14.925 14.93 8.243 0 14.926-6.684 14.926-14.93"/><path fill="#00F" d="M303.242 333.867c0-8.242-6.683-14.926-14.926-14.926-8.246 0-14.925 6.684-14.925 14.926 0 8.246 6.68 14.93 14.925 14.93 8.243 0 14.926-6.684 14.926-14.93"/><path fill="none" stroke="#00F" stroke-linecap="round" stroke-linejoin="round" stroke-miterlimit="10" stroke-width="1.4926000000000001" d="M303.242 387.176c0-8.242-6.683-14.926-14.926-14.926-8.246 0-14.925 6.684-14.925 14.926 0 8.246 6.68 14.93 14.925 14.93 8.243 0 14.926-6.684 14.926-14.93"/><path fill="#00F" d="M303.242 387.176c0-8.242-6.683-14.926-14.926-14.926-8.246 0-14.925 6.684-14.925 14.926 0 8.246 6.68 14.93 14.925 14.93 8.243 0 14.926-6.684 14.926-14.93"/><path fill="none" stroke="#00F" stroke-linecap="round" stroke-linejoin="round" stroke-miterlimit="10" stroke-width="1.4926000000000001" d="M303.242 440.484c0-8.242-6.683-14.925-14.926-14.925-8.246 0-14.925 6.683-14.925 14.925 0 8.246 6.68 14.926 14.925 14.926 8.243 0 14.926-6.68 14.926-14.926"/><path fill="#00F" d="M303.242 440.484c0-8.242-6.683-14.925-14.926-14.925-8.246 0-14.925 6.683-14.925 14.925 0 8.246 6.68 14.926 14.925 14.926 8.243 0 14.926-6.68 14.926-14.926"/><path fill="none" stroke="#00F" stroke-linecap="round" stroke-linejoin="round" stroke-miterlimit="10" stroke-width="1.4926000000000001" d="M303.242 574.723c0-8.243-6.683-14.926-14.926-14.926-8.246 0-14.925 6.683-14.925 14.926s6.68 14.925 14.925 14.925c8.243 0 14.926-6.683 14.926-14.925"/><path fill="#00F" d="M303.242 574.723c0-8.243-6.683-14.926-14.926-14.926-8.246 0-14.925 6.683-14.925 14.926s6.68 14.925 14.925 14.925c8.243 0 14.926-6.683 14.926-14.925"/><path fill="none" stroke="#00F" stroke-linecap="round" stroke-linejoin="round" stroke-miterlimit="10" stroke-width="1.4926000000000001" d="M303.242 628.031c0-8.246-6.683-14.926-14.926-14.926-8.246 0-14.925 6.68-14.925 14.926 0 8.242 6.68 14.926 14.925 14.926 8.243 0 14.926-6.684 14.926-14.926"/><path fill="#00F" d="M303.242 628.031c0-8.246-6.683-14.926-14.926-14.926-8.246 0-14.925 6.68-14.925 14.926 0 8.242 6.68 14.926 14.925 14.926 8.243 0 14.926-6.684 14.926-14.926"/><path fill="none" stroke="#00F" stroke-linecap="round" stroke-linejoin="round" stroke-miterlimit="10" stroke-width="1.4926000000000001" d="M303.242 681.34c0-8.246-6.683-14.93-14.926-14.93-8.246 0-14.925 6.684-14.925 14.93 0 8.242 6.68 14.926 14.925 14.926 8.243 0 14.926-6.684 14.926-14.926"/><path fill="#00F" d="M303.242 681.34c0-8.246-6.683-14.93-14.926-14.93-8.246 0-14.925 6.684-14.925 14.93 0 8.242 6.68 14.926 14.925 14.926 8.243 0 14.926-6.684 14.926-14.926"/><path fill="none" stroke="#00F" stroke-linecap="round" stroke-linejoin="round" stroke-miterlimit="10" stroke-width="6.397" d="M213.684 628.031v-53.308l-34.704-40.465v-53.309l34.704-40.465V280.563l-47.004-25.149-33.176-41.726-13.914-51.458 7.633-52.761 27.93-45.406 43.644-30.61L251 22.66l52.203 10.793 43.645 30.61 27.93 45.406 7.632 52.761-13.914 51.458-33.176 41.726-47.004 25.149v159.921l34.704 40.465v53.309l-34.704 40.465V681.34"/><use xlink:href="#a" x="202.907" y="691.289"/><use xlink:href="#b" x="202.907" y="637.981"/><use xlink:href="#c" x="202.071" y="584.673"/><use xlink:href="#c" x="167.367" y="544.209"/><use xlink:href="#b" x="168.203" y="490.901"/><use xlink:href="#a" x="202.907" y="450.436"/><use xlink:href="#a" x="202.907" y="397.128"/><use xlink:href="#b" x="202.907" y="343.82"/><use xlink:href="#b" x="202.907" y="290.512"/><use xlink:href="#a" x="155.903" y="265.364"/><use xlink:href="#a" x="122.725" y="223.64"/><use xlink:href="#a" x="108.812" y="172.179"/><use xlink:href="#b" x="116.445" y="119.421"/><use xlink:href="#b" x="144.374" y="74.014"/><use xlink:href="#a" x="188.019" y="43.405"/><use xlink:href="#a" x="240.223" y="32.612"/><use xlink:href="#a" x="292.427" y="43.405"/><use xlink:href="#b" x="336.071" y="74.014"/><use xlink:href="#b" x="364" y="119.421"/><use xlink:href="#a" x="371.634" y="172.179"/><use xlink:href="#a" x="357.721" y="223.64"/><use xlink:href="#a" x="324.542" y="265.364"/><use xlink:href="#c" x="276.703" y="290.512"/><use xlink:href="#d" x="278.36" y="343.82"/><use xlink:href="#c" x="276.703" y="397.128"/><use xlink:href="#c" x="276.703" y="450.436"/><use xlink:href="#a" x="312.243" y="490.901"/><use xlink:href="#d" x="313.064" y="544.209"/><use xlink:href="#a" x="277.538" y="584.673"/><use xlink:href="#d" x="278.36" y="637.981"/><use xlink:href="#c" x="276.703" y="691.289"/></svg>